<svg class="border shadow-md" viewBox="0 0 1056 594" style="width: 1056px; height: 594px;" xmlns="http://www.w3.org/2000/svg" preserveAspectRatio="none"><rect class="bg" id="bg" x="0" y="0" width="1056" height="594" fill="#fbf7ff"/><g transform="rotate(34 528 297)"><path d="M -352.00 514.00 S -186.00 506.00&#10;            0.00 514.00 166.00 510.00&#10;            352.00 514.00 419.00 466.00&#10;            704.00 514.00 870.00 513.00&#10;            1056.00 514.00 1193.00 490.00&#10;            1408.00 514.00 h 110 V 1194 H -352.00 Z" fill="none" stroke="#DBD4FA" stroke-width="24"/><path d="M -352.00 105.00 S -356.00 48.00&#10;            0.00 105.00 118.00 51.00&#10;            352.00 105.00 518.00 62.50&#10;            704.00 105.00 870.00 62.50&#10;            1056.00 105.00 1222.00 62.50&#10;            1408.00 105.00 h 110 V -600 H -352.00 Z" fill="none" stroke="#FFEEF3" stroke-width="24"/></g></svg>